<?xml version="1.0" standalone="no"?>
<!DOCTYPE svg PUBLIC "-//W3C//DTD SVG 20010904//EN"
 "http://www.w3.org/TR/2001/REC-SVG-20010904/DTD/svg10.dtd">
<svg version="1.0" xmlns="http://www.w3.org/2000/svg"
 width="581.000000pt" height="581.000000pt" viewBox="0 0 581.000000 581.000000"
 preserveAspectRatio="xMidYMid meet">
<metadata>
Created by potrace 1.14, written by Peter Selinger 2001-2017
</metadata>
<g transform="translate(0.000000,581.000000) scale(0.100000,-0.100000)"
fill="#000000" stroke="none">
<path d="M0 2905 l0 -2905 2905 0 2905 0 0 2905 0 2905 -2905 0 -2905 0 0
-2905z m2307 1535 c15 -6 157 -140 316 -298 l287 -287 288 287 c158 157 297
291 309 297 33 17 64 13 105 -12 45 -27 724 -720 744 -759 11 -22 12 -28 2
-28 -10 0 -10 -2 0 -9 8 -4 14 -12 14 -16 0 -4 -6 -12 -14 -16 -10 -7 -10 -9
0 -9 14 0 12 -21 -3 -32 -6 -5 -6 -8 1 -8 6 0 11 -7 11 -15 0 -8 -5 -15 -11
-15 -6 0 -5 -4 2 -9 8 -4 14 -12 14 -16 0 -4 -6 -12 -14 -16 -7 -5 -8 -9 -2
-9 6 0 11 -7 11 -15 0 -8 -5 -15 -11 -15 -6 0 -5 -4 2 -9 8 -4 14 -12 14 -16
0 -4 -6 -12 -14 -16 -7 -5 -8 -9 -2 -9 6 0 11 -7 11 -15 0 -8 -5 -15 -11 -15
-6 0 -4 -5 4 -10 8 -5 10 -10 5 -10 -6 0 -152 142 -325 316 -173 173 -355 352
-403 396 l-88 81 -229 -228 -228 -228 349 -356 c243 -247 352 -364 358 -386
21 -78 24 -74 -350 -450 -192 -193 -349 -355 -349 -360 0 -6 101 -111 225
-235 l225 -225 263 260 c379 377 533 525 546 525 13 0 10 -22 -4 -32 -6 -5 -6
-8 1 -8 6 0 11 -7 11 -15 0 -8 -5 -15 -11 -15 -6 0 -5 -4 2 -9 17 -11 17 -21
0 -32 -7 -5 -8 -9 -2 -9 6 0 11 -7 11 -15 0 -8 -5 -15 -11 -15 -6 0 -5 -4 2
-9 17 -11 17 -21 0 -32 -7 -5 -8 -9 -2 -9 6 0 11 -7 11 -15 0 -8 -5 -15 -11
-15 -6 0 -5 -4 2 -9 8 -4 14 -12 14 -16 0 -4 -6 -12 -14 -16 -7 -5 -8 -9 -2
-9 6 0 11 -7 11 -15 0 -8 -4 -15 -9 -15 -5 0 -6 -4 -3 -10 7 -12 -708 -736
-747 -756 -32 -17 -81 -18 -111 -3 -12 6 -149 137 -304 292 l-281 280 -284
-277 c-156 -153 -296 -285 -312 -293 -19 -10 -43 -13 -69 -10 -38 5 -68 33
-415 380 l-375 375 -1 157 c0 86 2 159 7 162 10 6 123 -102 490 -466 l307
-306 233 233 232 232 -352 352 c-232 233 -354 362 -358 381 -19 76 -17 79 358
454 l351 352 -19 23 c-11 13 -113 118 -229 235 l-210 212 -399 -395 c-219
-217 -402 -392 -405 -390 -4 2 -6 74 -6 160 1 150 2 157 27 188 54 71 703 722
732 734 37 16 56 17 92 4z"/>
<path d="M2610 3195 l-295 -295 295 -294 295 -295 298 292 298 292 -298 298
-298 297 -295 -295z"/>
</g>
</svg>
